<svg width="77" height="15" viewBox="0 0 77 15" fill="none" xmlns="http://www.w3.org/2000/svg">
<path d="M2.35742 4.49023V14H0.230469V4.49023H2.35742ZM0.0898438 1.99414C0.0898438 1.67187 0.195312 1.40527 0.40625 1.19434C0.623047 0.977539 0.921875 0.869141 1.30273 0.869141C1.67773 0.869141 1.97363 0.977539 2.19043 1.19434C2.40723 1.40527 2.51562 1.67187 2.51562 1.99414C2.51562 2.31055 2.40723 2.57422 2.19043 2.78516C1.97363 2.99609 1.67773 3.10156 1.30273 3.10156C0.921875 3.10156 0.623047 2.99609 0.40625 2.78516C0.195312 2.57422 0.0898438 2.31055 0.0898438 1.99414ZM6.77832 6.52051V14H4.66016V4.49023H6.65527L6.77832 6.52051ZM6.40039 8.89355L5.71484 8.88477C5.7207 8.21094 5.81445 7.59277 5.99609 7.03027C6.18359 6.46777 6.44141 5.98438 6.76953 5.58008C7.10352 5.17578 7.50195 4.86523 7.96484 4.64844C8.42773 4.42578 8.94336 4.31445 9.51172 4.31445C9.96875 4.31445 10.3818 4.37891 10.751 4.50781C11.126 4.63086 11.4453 4.83301 11.709 5.11426C11.9785 5.39551 12.1836 5.76172 12.3242 6.21289C12.4648 6.6582 12.5352 7.20605 12.5352 7.85645V14H10.4082V7.84766C10.4082 7.39062 10.3408 7.03027 10.2061 6.7666C10.0771 6.49707 9.88672 6.30664 9.63477 6.19531C9.38867 6.07812 9.08105 6.01953 8.71191 6.01953C8.34863 6.01953 8.02344 6.0957 7.73633 6.24805C7.44922 6.40039 7.20605 6.6084 7.00684 6.87207C6.81348 7.13574 6.66406 7.44043 6.55859 7.78613C6.45312 8.13184 6.40039 8.50098 6.40039 8.89355ZM17.5625 14H15.4443V3.57617C15.4443 2.86719 15.5762 2.27246 15.8398 1.79199C16.1094 1.30566 16.4932 0.939453 16.9912 0.693359C17.4893 0.441406 18.0781 0.31543 18.7578 0.31543C18.9688 0.31543 19.1768 0.330078 19.3818 0.359375C19.5869 0.382813 19.7861 0.420898 19.9795 0.473633L19.9268 2.1084C19.8096 2.0791 19.6807 2.05859 19.54 2.04688C19.4053 2.03516 19.2588 2.0293 19.1006 2.0293C18.7783 2.0293 18.5 2.09082 18.2656 2.21387C18.0371 2.33105 17.8613 2.50391 17.7383 2.73242C17.6211 2.96094 17.5625 3.24219 17.5625 3.57617V14ZM19.5225 4.49023V6.03711H13.9854V4.49023H19.5225ZM20.6562 9.35059V9.14844C20.6562 8.46289 20.7559 7.82715 20.9551 7.24121C21.1543 6.64941 21.4414 6.13672 21.8164 5.70312C22.1973 5.26367 22.6602 4.92383 23.2051 4.68359C23.7559 4.4375 24.377 4.31445 25.0684 4.31445C25.7656 4.31445 26.3867 4.4375 26.9316 4.68359C27.4824 4.92383 27.9482 5.26367 28.3291 5.70312C28.71 6.13672 29 6.64941 29.1992 7.24121C29.3984 7.82715 29.498 8.46289 29.498 9.14844V9.35059C29.498 10.0361 29.3984 10.6719 29.1992 11.2578C29 11.8438 28.71 12.3564 28.3291 12.7959C27.9482 13.2295 27.4854 13.5693 26.9404 13.8154C26.3955 14.0557 25.7773 14.1758 25.0859 14.1758C24.3887 14.1758 23.7646 14.0557 23.2139 13.8154C22.6689 13.5693 22.2061 13.2295 21.8252 12.7959C21.4443 12.3564 21.1543 11.8438 20.9551 11.2578C20.7559 10.6719 20.6562 10.0361 20.6562 9.35059ZM22.7744 9.14844V9.35059C22.7744 9.77832 22.8184 10.1826 22.9062 10.5635C22.9941 10.9443 23.1318 11.2783 23.3193 11.5654C23.5068 11.8525 23.7471 12.0781 24.04 12.2422C24.333 12.4062 24.6816 12.4883 25.0859 12.4883C25.4785 12.4883 25.8184 12.4062 26.1055 12.2422C26.3984 12.0781 26.6387 11.8525 26.8262 11.5654C27.0137 11.2783 27.1514 10.9443 27.2393 10.5635C27.333 10.1826 27.3799 9.77832 27.3799 9.35059V9.14844C27.3799 8.72656 27.333 8.32812 27.2393 7.95312C27.1514 7.57227 27.0107 7.23535 26.8174 6.94238C26.6299 6.64941 26.3896 6.4209 26.0967 6.25684C25.8096 6.08691 25.4668 6.00195 25.0684 6.00195C24.6699 6.00195 24.3242 6.08691 24.0312 6.25684C23.7441 6.4209 23.5068 6.64941 23.3193 6.94238C23.1318 7.23535 22.9941 7.57227 22.9062 7.95312C22.8184 8.32812 22.7744 8.72656 22.7744 9.14844Z" fill="#FF8600"/>
<path d="M37.0742 12.0312V0.5H39.2012V14H37.2764L37.0742 12.0312ZM30.8867 9.35059V9.16602C30.8867 8.44531 30.9717 7.78906 31.1416 7.19727C31.3115 6.59961 31.5576 6.08691 31.8799 5.65918C32.2021 5.22559 32.5947 4.89453 33.0576 4.66602C33.5205 4.43164 34.042 4.31445 34.6221 4.31445C35.1963 4.31445 35.7002 4.42578 36.1338 4.64844C36.5674 4.87109 36.9365 5.19043 37.2412 5.60645C37.5459 6.0166 37.7891 6.50879 37.9707 7.08301C38.1523 7.65137 38.2812 8.28418 38.3574 8.98145V9.57031C38.2812 10.25 38.1523 10.8711 37.9707 11.4336C37.7891 11.9961 37.5459 12.4824 37.2412 12.8926C36.9365 13.3027 36.5645 13.6191 36.125 13.8418C35.6914 14.0645 35.1846 14.1758 34.6045 14.1758C34.0303 14.1758 33.5117 14.0557 33.0488 13.8154C32.5918 13.5752 32.2021 13.2383 31.8799 12.8047C31.5576 12.3711 31.3115 11.8613 31.1416 11.2754C30.9717 10.6836 30.8867 10.042 30.8867 9.35059ZM33.0049 9.16602V9.35059C33.0049 9.78418 33.043 10.1885 33.1191 10.5635C33.2012 10.9385 33.3271 11.2695 33.4971 11.5566C33.667 11.8379 33.8867 12.0605 34.1562 12.2246C34.4316 12.3828 34.7598 12.4619 35.1406 12.4619C35.6211 12.4619 36.0166 12.3564 36.3271 12.1455C36.6377 11.9346 36.8809 11.6504 37.0566 11.293C37.2383 10.9297 37.3613 10.5254 37.4258 10.0801V8.48926C37.3906 8.14355 37.3174 7.82129 37.2061 7.52246C37.1006 7.22363 36.957 6.96289 36.7754 6.74023C36.5938 6.51172 36.3682 6.33594 36.0986 6.21289C35.835 6.08398 35.5215 6.01953 35.1582 6.01953C34.7715 6.01953 34.4434 6.10156 34.1738 6.26562C33.9043 6.42969 33.6816 6.65527 33.5059 6.94238C33.3359 7.22949 33.21 7.56348 33.1279 7.94434C33.0459 8.3252 33.0049 8.73242 33.0049 9.16602ZM43.5342 6.42383V14H41.416V4.49023H43.4111L43.5342 6.42383ZM43.1914 8.89355L42.4707 8.88477C42.4707 8.22852 42.5527 7.62207 42.7168 7.06543C42.8809 6.50879 43.1211 6.02539 43.4375 5.61523C43.7539 5.19922 44.1465 4.87988 44.6152 4.65723C45.0898 4.42871 45.6377 4.31445 46.2588 4.31445C46.6924 4.31445 47.0879 4.37891 47.4453 4.50781C47.8086 4.63086 48.1221 4.82715 48.3857 5.09668C48.6553 5.36621 48.8604 5.71191 49.001 6.13379C49.1475 6.55566 49.2207 7.06543 49.2207 7.66309V14H47.1025V7.84766C47.1025 7.38477 47.0322 7.02148 46.8916 6.75781C46.7568 6.49414 46.5605 6.30664 46.3027 6.19531C46.0508 6.07812 45.749 6.01953 45.3975 6.01953C44.999 6.01953 44.6592 6.0957 44.3779 6.24805C44.1025 6.40039 43.877 6.6084 43.7012 6.87207C43.5254 7.13574 43.3965 7.44043 43.3145 7.78613C43.2324 8.13184 43.1914 8.50098 43.1914 8.89355ZM49.0889 8.33105L48.0957 8.55078C48.0957 7.97656 48.1748 7.43457 48.333 6.9248C48.4971 6.40918 48.7344 5.95801 49.0449 5.57129C49.3613 5.17871 49.751 4.87109 50.2139 4.64844C50.6768 4.42578 51.207 4.31445 51.8047 4.31445C52.291 4.31445 52.7246 4.38184 53.1055 4.5166C53.4922 4.64551 53.8203 4.85059 54.0898 5.13184C54.3594 5.41309 54.5645 5.7793 54.7051 6.23047C54.8457 6.67578 54.916 7.21484 54.916 7.84766V14H52.7891V7.83887C52.7891 7.3584 52.7188 6.98633 52.5781 6.72266C52.4434 6.45898 52.25 6.27734 51.998 6.17773C51.7461 6.07227 51.4443 6.01953 51.0928 6.01953C50.7646 6.01953 50.4746 6.08105 50.2227 6.2041C49.9766 6.32129 49.7686 6.48828 49.5986 6.70508C49.4287 6.91602 49.2998 7.15918 49.2119 7.43457C49.1299 7.70996 49.0889 8.00879 49.0889 8.33105ZM57.1836 12.9453C57.1836 12.6172 57.2949 12.3418 57.5176 12.1191C57.7402 11.8906 58.042 11.7764 58.4229 11.7764C58.8096 11.7764 59.1113 11.8906 59.3281 12.1191C59.5508 12.3418 59.6621 12.6172 59.6621 12.9453C59.6621 13.2734 59.5508 13.5488 59.3281 13.7715C59.1113 13.9941 58.8096 14.1055 58.4229 14.1055C58.042 14.1055 57.7402 13.9941 57.5176 13.7715C57.2949 13.5488 57.1836 13.2734 57.1836 12.9453ZM64.2324 6.30078V14H62.1143V4.49023H64.1357L64.2324 6.30078ZM67.1416 4.42871L67.124 6.39746C66.9951 6.37402 66.8545 6.35645 66.7021 6.34473C66.5557 6.33301 66.4092 6.32715 66.2627 6.32715C65.8994 6.32715 65.5801 6.37988 65.3047 6.48535C65.0293 6.58496 64.7979 6.73145 64.6104 6.9248C64.4287 7.1123 64.2881 7.34082 64.1885 7.61035C64.0889 7.87988 64.0303 8.18164 64.0127 8.51562L63.5293 8.55078C63.5293 7.95312 63.5879 7.39941 63.7051 6.88965C63.8223 6.37988 63.998 5.93164 64.2324 5.54492C64.4727 5.1582 64.7715 4.85645 65.1289 4.63965C65.4922 4.42285 65.9111 4.31445 66.3857 4.31445C66.5146 4.31445 66.6523 4.32617 66.7988 4.34961C66.9512 4.37305 67.0654 4.39941 67.1416 4.42871ZM74.1904 11.7588V4.49023H76.3174V14H74.3135L74.1904 11.7588ZM74.4893 9.78125L75.2012 9.76367C75.2012 10.4023 75.1309 10.9912 74.9902 11.5303C74.8496 12.0635 74.6328 12.5293 74.3398 12.9277C74.0469 13.3203 73.6719 13.6279 73.2148 13.8506C72.7578 14.0674 72.21 14.1758 71.5713 14.1758C71.1084 14.1758 70.6836 14.1084 70.2969 13.9736C69.9102 13.8389 69.5762 13.6309 69.2949 13.3496C69.0195 13.0684 68.8057 12.7021 68.6533 12.251C68.501 11.7998 68.4248 11.2607 68.4248 10.6338V4.49023H70.543V10.6514C70.543 10.9971 70.584 11.2871 70.666 11.5215C70.748 11.75 70.8594 11.9346 71 12.0752C71.1406 12.2158 71.3047 12.3154 71.4922 12.374C71.6797 12.4326 71.8789 12.4619 72.0898 12.4619C72.6934 12.4619 73.168 12.3447 73.5137 12.1104C73.8652 11.8701 74.1143 11.5479 74.2607 11.1436C74.4131 10.7393 74.4893 10.2852 74.4893 9.78125Z" fill="#27187E"/>
</svg>
