<svg xmlns="http://www.w3.org/2000/svg" width="40" height="36" viewBox="0 0 40 36" fill="none">
<g filter="url(#filter0_i_1_14)">
<path fill-rule="evenodd" clip-rule="evenodd" d="M17.7218 0C27.0391 0 34.5981 6.65386 34.6622 14.8845C32.5517 13.7325 30.1254 13.121 27.6873 13.121C22.5082 13.121 17.3775 15.8784 15.2285 20.7292C14.6 22.1489 14.2734 23.6733 14.2734 25.2274C14.2734 26.7814 14.6 28.3058 15.2295 29.7255C15.2443 29.7601 15.26 29.7927 15.2748 29.8263C13.5718 29.6079 11.9507 29.1653 10.45 28.534C7.58858 30.1088 3.99706 30.8725 0 31.0316C1.83523 28.5558 2.9344 25.911 3.50273 23.1428C1.78096 20.7964 0.780467 17.9975 0.780467 14.9902C0.780467 6.71116 8.3651 0 17.7218 0Z" fill="url(#paint0_linear_1_14)"/>
</g>
<g filter="url(#filter1_i_1_14)">
<path fill-rule="evenodd" clip-rule="evenodd" d="M27.6883 15.1591C21.4041 15.1591 16.3109 19.6672 16.3109 25.2274C16.3109 30.7876 21.4041 35.2946 27.6883 35.2946C29.4367 35.2946 31.0924 34.9459 32.5714 34.3225C34.4945 35.3805 36.9059 35.8933 39.5897 36C38.3573 34.3373 37.6193 32.5609 37.2374 30.7026C38.3938 29.1258 39.0668 27.2467 39.0668 25.2274C39.0668 19.6672 33.9725 15.1591 27.6883 15.1591ZM22.9808 23.9233C23.8945 23.9233 24.6345 24.6652 24.6345 25.5801C24.6345 26.4939 23.8945 27.2359 22.9808 27.2359C22.0672 27.2359 21.3272 26.4939 21.3272 25.5801C21.3272 24.6652 22.0672 23.9233 22.9808 23.9233ZM27.6883 23.9233C28.602 23.9233 29.342 24.6652 29.342 25.5801C29.342 26.4939 28.602 27.2359 27.6883 27.2359C26.7746 27.2359 26.0346 26.4939 26.0346 25.5801C26.0346 24.6652 26.7746 23.9233 27.6883 23.9233ZM32.3958 23.9233C33.3095 23.9233 34.0505 24.6652 34.0505 25.5801C34.0505 26.4939 33.3095 27.2359 32.3958 27.2359C31.4821 27.2359 30.7421 26.4939 30.7421 25.5801C30.7421 24.6652 31.4821 23.9233 32.3958 23.9233Z" fill="url(#paint1_linear_1_14)" fill-opacity="0.2"/>
</g>
<defs>
<filter id="filter0_i_1_14" x="0" y="0" width="34.6622" height="32.0316" filterUnits="userSpaceOnUse" color-interpolation-filters="sRGB">
<feFlood flood-opacity="0" result="BackgroundImageFix"/>
<feBlend mode="normal" in="SourceGraphic" in2="BackgroundImageFix" result="shape"/>
<feColorMatrix in="SourceAlpha" type="matrix" values="0 0 0 0 0 0 0 0 0 0 0 0 0 0 0 0 0 0 127 0" result="hardAlpha"/>
<feOffset dy="1"/>
<feGaussianBlur stdDeviation="0.5"/>
<feComposite in2="hardAlpha" operator="arithmetic" k2="-1" k3="1"/>
<feColorMatrix type="matrix" values="0 0 0 0 0 0 0 0 0 0 0 0 0 0 0 0 0 0 0.1 0"/>
<feBlend mode="normal" in2="shape" result="effect1_innerShadow_1_14"/>
</filter>
<filter id="filter1_i_1_14" x="16.3109" y="15.1591" width="23.2788" height="21.8409" filterUnits="userSpaceOnUse" color-interpolation-filters="sRGB">
<feFlood flood-opacity="0" result="BackgroundImageFix"/>
<feBlend mode="normal" in="SourceGraphic" in2="BackgroundImageFix" result="shape"/>
<feColorMatrix in="SourceAlpha" type="matrix" values="0 0 0 0 0 0 0 0 0 0 0 0 0 0 0 0 0 0 127 0" result="hardAlpha"/>
<feOffset dy="1"/>
<feGaussianBlur stdDeviation="0.5"/>
<feComposite in2="hardAlpha" operator="arithmetic" k2="-1" k3="1"/>
<feColorMatrix type="matrix" values="0 0 0 0 0 0 0 0 0 0 0 0 0 0 0 0 0 0 0.1 0"/>
<feBlend mode="normal" in2="shape" result="effect1_innerShadow_1_14"/>
</filter>
<linearGradient id="paint0_linear_1_14" x1="17.3739" y1="7.9749" x2="17.3311" y2="31.0316" gradientUnits="userSpaceOnUse">
<stop stop-color="#2AABEE" stop-opacity="0.7"/>
<stop offset="1" stop-color="#229ED9"/>
</linearGradient>
<linearGradient id="paint1_linear_1_14" x1="39.0201" y1="35.0326" x2="21.575" y2="16.4482" gradientUnits="userSpaceOnUse">
<stop stop-color="#229ED9"/>
<stop offset="0.612147" stop-color="#27A6E6"/>
<stop offset="1" stop-color="#2AABEE"/>
</linearGradient>
</defs>
</svg>