<svg width="17" height="14" viewBox="0 0 17 14" fill="none" xmlns="http://www.w3.org/2000/svg">
<path d="M1.59976 6.09648C5.89553 4.26205 8.75938 3.05256 10.1913 2.46824C14.2845 0.799693 15.134 0.509903 15.6888 0.500086C15.8108 0.498167 16.0825 0.527733 16.2597 0.668226C16.4071 0.786715 16.4485 0.946957 16.4692 1.05947C16.4876 1.17186 16.513 1.42802 16.4922 1.62799C16.2712 3.912 15.3112 9.45456 14.8232 12.0128C14.6183 13.0952 14.2108 13.4581 13.8172 13.4936C12.9608 13.5707 12.3116 12.9393 11.4828 12.4068C10.1867 11.5734 9.45463 11.0547 8.19536 10.2416C6.74041 9.30177 7.68429 8.78516 8.51306 7.94106C8.72946 7.72011 12.5003 4.35842 12.5717 4.05351C12.5809 4.01536 12.5901 3.87318 12.5026 3.79825C12.4175 3.72309 12.2909 3.74882 12.1988 3.76913C12.0675 3.79802 9.99793 5.14044 5.98301 7.79617C5.39597 8.19203 4.86418 8.385 4.38533 8.37485C3.86045 8.36379 2.84751 8.08325 2.09472 7.84356C1.17386 7.54949 0.439483 7.39398 0.503942 6.89453C0.536172 6.63453 0.902211 6.36844 1.59976 6.09648Z" fill="white"/>
</svg>
