<svg width="16" height="16" viewBox="0 0 16 16" fill="none" xmlns="http://www.w3.org/2000/svg">
<path fill-rule="evenodd" clip-rule="evenodd" d="M1.5498 4.14287C1.5498 3.89434 1.75128 3.69287 1.9998 3.69287H13.9997C14.2482 3.69287 14.4497 3.89434 14.4497 4.14287C14.4497 4.3914 14.2482 4.59287 13.9997 4.59287H1.9998C1.75128 4.59287 1.5498 4.3914 1.5498 4.14287Z" fill="#FF8600"/>
<path fill-rule="evenodd" clip-rule="evenodd" d="M4.16416 4.59287V10.9399C4.16416 12.3814 5.3327 13.5499 6.77416 13.5499H9.22549C10.667 13.5499 11.8355 12.3814 11.8355 10.9399V4.59287H4.16416ZM3.26416 4.20287C3.26416 3.92121 3.4925 3.69287 3.77416 3.69287H12.2255C12.5072 3.69287 12.7355 3.92121 12.7355 4.20287V10.9399C12.7355 12.8784 11.164 14.4499 9.22549 14.4499H6.77416C4.83564 14.4499 3.26416 12.8784 3.26416 10.9399V4.20287Z" fill="#FF8600"/>
<path fill-rule="evenodd" clip-rule="evenodd" d="M6.28545 6.69287C6.53398 6.69287 6.73545 6.89434 6.73545 7.14287V10.5714C6.73545 10.8199 6.53398 11.0214 6.28545 11.0214C6.03692 11.0214 5.83545 10.8199 5.83545 10.5714V7.14287C5.83545 6.89434 6.03692 6.69287 6.28545 6.69287Z" fill="#FF8600"/>
<path fill-rule="evenodd" clip-rule="evenodd" d="M9.71416 6.69287C9.96269 6.69287 10.1642 6.89434 10.1642 7.14287V10.5714C10.1642 10.8199 9.96269 11.0214 9.71416 11.0214C9.46563 11.0214 9.26416 10.8199 9.26416 10.5714V7.14287C9.26416 6.89434 9.46563 6.69287 9.71416 6.69287Z" fill="#FF8600"/>
<path fill-rule="evenodd" clip-rule="evenodd" d="M6.62852 2.45005C6.2143 2.45005 5.87852 2.78583 5.87852 3.20005V4.14288C5.87852 4.39141 5.67704 4.59288 5.42852 4.59288C5.17999 4.59288 4.97852 4.39141 4.97852 4.14288V3.20005C4.97852 2.28878 5.71725 1.55005 6.62852 1.55005H9.37131C10.2826 1.55005 11.0213 2.28878 11.0213 3.20005V4.14288C11.0213 4.39141 10.8198 4.59288 10.5713 4.59288C10.3228 4.59288 10.1213 4.39141 10.1213 4.14288V3.20005C10.1213 2.78584 9.78552 2.45005 9.37131 2.45005H6.62852Z" fill="#FF8600"/>
</svg>
