<svg width="20" height="20" viewBox="0 0 20 20" fill="none" xmlns="http://www.w3.org/2000/svg">
<g clip-path="url(#clip0_211_591)">
<path d="M12.5941 2.675L12.6724 2.74416L17.2557 7.3275C17.3962 7.46873 17.4815 7.6556 17.496 7.85427C17.5106 8.05294 17.4535 8.25025 17.3351 8.41045C17.2167 8.57065 17.0449 8.68314 16.8507 8.72755C16.6565 8.77195 16.4528 8.74533 16.2766 8.6525L13.6332 11.295L12.4466 14.4592C12.4153 14.5427 12.3709 14.6206 12.3149 14.69L12.2566 14.7567L11.0066 16.0067C10.863 16.15 10.672 16.2361 10.4695 16.2486C10.267 16.2612 10.0668 16.1995 9.90657 16.075L9.8274 16.0058L7.4999 13.6792L4.33907 16.8392C4.18911 16.9886 3.98788 17.0754 3.77625 17.0819C3.56463 17.0883 3.35848 17.014 3.19967 16.874C3.04087 16.7339 2.94132 16.5387 2.92124 16.3279C2.90116 16.1172 2.96206 15.9067 3.09157 15.7392L3.16074 15.6608L6.32074 12.5L3.99407 10.1725C3.85059 10.029 3.7644 9.83809 3.75166 9.63556C3.73893 9.43304 3.80053 9.23283 3.9249 9.0725L3.99407 8.99416L5.24407 7.74416C5.30695 7.68106 5.37954 7.62845 5.45907 7.58833L5.54074 7.55333L8.70407 6.36583L11.3466 3.72416C11.2565 3.55569 11.227 3.36137 11.2631 3.17375C11.2991 2.98613 11.3986 2.81661 11.5448 2.69358C11.6909 2.57055 11.875 2.50148 12.066 2.49795C12.257 2.49441 12.4434 2.55746 12.5941 2.675Z" fill="#FF8600"/>
</g>
<defs>
<clipPath id="clip0_211_591">
<rect width="20" height="20" fill="white"/>
</clipPath>
</defs>
</svg>
