<svg xmlns="http://www.w3.org/2000/svg" width="17" height="18" viewBox="0 0 17 18" fill="none">
<path fill-rule="evenodd" clip-rule="evenodd" d="M12.958 8.99988C12.958 9.34506 12.6782 9.62488 12.333 9.62488L1.49967 9.62488C1.1545 9.62488 0.874675 9.34505 0.874675 8.99988C0.874675 8.6547 1.1545 8.37488 1.49967 8.37488L12.333 8.37488C12.6782 8.37488 12.958 8.6547 12.958 8.99988Z" fill="black" fill-opacity="0.4"/>
<path fill-rule="evenodd" clip-rule="evenodd" d="M5.27495 13.6084C5.03087 13.8525 4.63514 13.8525 4.39107 13.6084L0.283326 9.5007C0.00670521 9.22408 0.00670334 8.77559 0.283326 8.49897L4.39107 4.39123C4.63514 4.14715 5.03087 4.14715 5.27495 4.39123C5.51903 4.63531 5.51903 5.03104 5.27495 5.27511L1.55023 8.99984L5.27495 12.7246C5.51903 12.9686 5.51903 13.3644 5.27495 13.6084Z" fill="black" fill-opacity="0.4"/>
<path fill-rule="evenodd" clip-rule="evenodd" d="M11.1527 1.22217C11.1527 0.87699 11.4325 0.597168 11.7777 0.597168H15.5833C15.9745 0.597168 16.2916 0.914301 16.2916 1.3055V16.6944C16.2916 17.0856 15.9745 17.4027 15.5833 17.4027H11.2222C10.877 17.4027 10.5972 17.1229 10.5972 16.7777C10.5972 16.4325 10.877 16.1527 11.2222 16.1527H15.0416V1.84717H11.7777C11.4325 1.84717 11.1527 1.56735 11.1527 1.22217Z" fill="black" fill-opacity="0.4"/>
</svg>