<svg width="26" height="20" viewBox="0 0 26 20" fill="none" xmlns="http://www.w3.org/2000/svg">
<path fill-rule="evenodd" clip-rule="evenodd" d="M22.3687 0.631282C22.7104 0.97299 22.7104 1.52701 22.3687 1.86872L4.86872 19.3687C4.52701 19.7104 3.97299 19.7104 3.63128 19.3687C3.28957 19.027 3.28957 18.473 3.63128 18.1313L21.1313 0.631282C21.473 0.289573 22.027 0.289573 22.3687 0.631282Z" fill="#7266B5"/>
<path fill-rule="evenodd" clip-rule="evenodd" d="M22.3687 0.631282C22.7104 0.97299 22.7104 1.52701 22.3687 1.86872L4.86872 19.3687C4.52701 19.7104 3.97299 19.7104 3.63128 19.3687C3.28957 19.027 3.28957 18.473 3.63128 18.1313L21.1313 0.631282C21.473 0.289573 22.027 0.289573 22.3687 0.631282Z" fill="#7266B5"/>
<path fill-rule="evenodd" clip-rule="evenodd" d="M10.3147 12.2442C10.9567 13.0118 11.9217 13.5 13.0006 13.5C14.9336 13.5 16.5006 11.933 16.5006 10C16.5006 8.92106 16.0124 7.95612 15.2448 7.31409L10.3147 12.2442Z" fill="#7266B5"/>
<path fill-rule="evenodd" clip-rule="evenodd" d="M17.4591 3.13682C16.0782 2.52824 14.5715 2.125 13 2.125C9.77787 2.125 6.82841 3.82015 4.67666 5.50467C2.50522 7.20459 1.01928 8.99412 0.706667 9.38229C0.415154 9.74426 0.415167 10.2558 0.706668 10.6177C1.01928 11.0059 2.50523 12.7954 4.67666 14.4953C4.93698 14.6991 5.20898 14.9031 5.49173 15.1042L6.74832 13.8476C6.4058 13.6119 6.07426 13.367 5.75541 13.1174C4.23646 11.9282 3.0742 10.6875 2.47412 10C3.0742 9.31251 4.23646 8.07175 5.75541 6.88263C7.79891 5.28286 10.3634 3.875 13 3.875C14.0604 3.875 15.109 4.10271 16.1169 4.47902L17.4591 3.13682ZM8.28181 14.789C9.75524 15.5828 11.3637 16.125 13 16.125C15.6366 16.125 18.2011 14.7171 20.2446 13.1174C21.7635 11.9282 22.9258 10.6875 23.5259 10C22.9258 9.31251 21.7635 8.07175 20.2446 6.88263C19.4956 6.29631 18.6767 5.73577 17.8099 5.26087L19.0934 3.97733C19.9037 4.45299 20.6523 4.97934 21.3233 5.50466C23.4948 7.20459 24.9807 8.99412 25.2933 9.38229C25.5848 9.74425 25.5848 10.2557 25.2933 10.6177C24.9807 11.0059 23.4948 12.7954 21.3233 14.4953C19.1716 16.1799 16.2221 17.875 13 17.875C10.8196 17.875 8.76398 17.0987 6.99597 16.0748L8.28181 14.789Z" fill="#7266B5"/>
</svg>
