<svg xmlns="http://www.w3.org/2000/svg" width="26" height="16" viewBox="0 0 26 16" fill="none">
<path fill-rule="evenodd" clip-rule="evenodd" d="M2.47412 8C3.0742 8.68749 4.23646 9.92825 5.75541 11.1174C7.79891 12.7171 10.3634 14.125 13 14.125C15.6366 14.125 18.2011 12.7171 20.2446 11.1174C21.7635 9.92825 22.9258 8.68749 23.5259 8C22.9258 7.31251 21.7635 6.07175 20.2446 4.88263C18.2011 3.28286 15.6366 1.875 13 1.875C10.3634 1.875 7.79891 3.28286 5.75541 4.88263C4.23646 6.07175 3.0742 7.31251 2.47412 8ZM4.67666 3.50467C6.82841 1.82015 9.77787 0.125 13 0.125C16.2221 0.125 19.1716 1.82015 21.3233 3.50466C23.4948 5.20459 24.9807 6.99412 25.2933 7.38229C25.5848 7.74425 25.5848 8.25574 25.2933 8.61771C24.9807 9.00588 23.4948 10.7954 21.3233 12.4953C19.1716 14.1799 16.2221 15.875 13 15.875C9.77787 15.875 6.82842 14.1799 4.67666 12.4953C2.50523 10.7954 1.01928 9.00588 0.706668 8.61771C0.415167 8.25575 0.415154 7.74426 0.706667 7.38229C1.01928 6.99412 2.50522 5.20459 4.67666 3.50467Z" fill="#7266B5"/>
<path fill-rule="evenodd" clip-rule="evenodd" d="M13 5.375C11.5503 5.375 10.375 6.55025 10.375 8C10.375 9.44975 11.5503 10.625 13 10.625C14.4497 10.625 15.625 9.44975 15.625 8C15.625 6.55025 14.4497 5.375 13 5.375ZM8.625 8C8.625 5.58375 10.5838 3.625 13 3.625C15.4162 3.625 17.375 5.58375 17.375 8C17.375 10.4162 15.4162 12.375 13 12.375C10.5838 12.375 8.625 10.4162 8.625 8Z" fill="#7266B5"/>
</svg>