<svg width="17" height="18" viewBox="0 0 17 18" fill="none" xmlns="http://www.w3.org/2000/svg">
<g clip-path="url(#clip0_208_393)">
<path d="M2.86735 17.7124C2.14671 17.7124 1.4548 17.3966 0.903367 16.8122C-0.319305 15.5133 -0.319304 13.4009 0.903085 12.1029L10.4369 1.38336C11.9244 -0.194175 14.2029 -0.0524249 15.8657 1.71045C16.6108 2.50076 17.0289 3.64011 17.0132 4.83767C16.9976 6.02259 16.5604 7.15658 15.8131 7.94914L8.60779 16.0711C8.40724 16.2986 8.07096 16.309 7.85688 16.0956C7.64332 15.8818 7.63296 15.5252 7.8343 15.2985L15.0505 7.16417C15.615 6.56539 15.9388 5.716 15.9507 4.8219C15.9627 3.92726 15.6575 3.08378 15.1145 2.5075C14.0945 1.42525 12.4338 0.858526 11.1992 2.16887L1.66566 12.8884C0.845942 13.7586 0.846208 15.1562 1.65504 16.0148C2.03433 16.4167 2.48457 16.6124 2.96402 16.5818C3.43843 16.5511 3.92611 16.2935 4.3373 15.857L11.923 7.30812C12.1979 7.01646 12.7504 6.30152 12.1881 5.70471C11.8696 5.36693 11.646 5.38774 11.5724 5.39421C11.3623 5.4139 11.1168 5.56774 10.8621 5.8383L5.1525 12.268C4.95089 12.4949 4.61435 12.5059 4.40157 12.2919C4.18774 12.0787 4.17791 11.7215 4.37899 11.4954L10.099 5.05362C10.5487 4.57521 11.0085 4.3159 11.4765 4.27146C11.8418 4.23713 12.385 4.31955 12.9391 4.90793C13.7614 5.78035 13.6592 7.06005 12.6854 8.09337L5.09966 16.6417C4.49404 17.2852 3.76275 17.6589 3.0291 17.7067C2.97518 17.7107 2.92125 17.7124 2.86733 17.7124L2.86735 17.7124Z" fill="#27187E"/>
</g>
<defs>
<clipPath id="clip0_208_393">
<rect width="17" height="18" fill="white"/>
</clipPath>
</defs>
</svg>
