<svg xmlns="http://www.w3.org/2000/svg" width="0" height="0">
  <symbol id="chevron" viewBox="0 0 9 16" fill="none">
     <g clip-path="url(#clip0_203_30)">
     <path d="M7.5 1.75L1.25 8L7.5 14.25" stroke-width="2" stroke-linecap="round" stroke-linejoin="round"/>
     </g>
     <defs>
     <clipPath id="clip0_203_30">
     <rect width="15" height="9" fill="white" transform="translate(0 15.5) rotate(-90)"/>
     </clipPath>
     </defs>
  </symbol>
  <symbol id="ads" viewBox="0 0 31 30">
    <path fill-rule="evenodd" clip-rule="evenodd" d="M21.0382 6.56785C22.5718 7.4337 23.747 8.83525 23.747 10.7869V17.3452L27.0276 21.0497C28.2777 22.4614 27.2755 24.6875 25.39 24.6875H5.94324C4.05767 24.6875 3.05551 22.4614 4.30558 21.0497L7.58624 17.3452V10.7868C7.58624 8.8352 8.76139 7.43367 10.295 6.56783C11.8115 5.71161 13.7674 5.3125 15.6666 5.3125C17.5658 5.3125 19.5217 5.71161 21.0382 6.56785ZM11.2168 8.20058C10.0718 8.84702 9.46124 9.7139 9.46124 10.7868V17.4642C9.46124 17.8467 9.32097 18.2144 9.06849 18.4995L5.70929 22.2928C5.5307 22.4945 5.67387 22.8125 5.94324 22.8125H25.39C25.6593 22.8125 25.8025 22.4945 25.6239 22.2928L22.2647 18.4995C22.0122 18.2144 21.872 17.8467 21.872 17.4642V10.7869C21.872 9.71393 21.2614 8.84704 20.1164 8.20059C18.9544 7.54454 17.3389 7.1875 15.6666 7.1875C13.9943 7.1875 12.3788 7.54453 11.2168 8.20058Z"/>
    <path d="M18.1665 4.375C18.1665 5.75571 17.0472 6.875 15.6665 6.875C14.2858 6.875 13.1665 5.75571 13.1665 4.375C13.1665 2.99429 14.2858 1.875 15.6665 1.875C17.0472 1.875 18.1665 2.99429 18.1665 4.375Z"/>
    <path fill-rule="evenodd" clip-rule="evenodd" d="M10.354 22.8125H20.9785V23.75C20.9785 25.0439 20.3776 26.2495 19.3697 27.1135C18.3662 27.9736 17.0323 28.4375 15.666 28.4375C14.3061 28.4375 12.9392 27.9774 11.9313 27.1135C10.908 26.2364 10.354 25.0248 10.354 23.75L10.354 22.8125ZM12.414 24.6875C12.5657 25.0557 12.8111 25.3981 13.1515 25.6898C13.7845 26.2324 14.7052 26.5625 15.666 26.5625C16.6204 26.5625 17.512 26.2363 18.1495 25.6898C18.4945 25.3941 18.7468 25.051 18.905 24.6875H12.414Z"/>
  </symbol>
  <symbol id="phone" viewBox="0 0 30 30">
    <g clip-path="url(#clip0_214_440)">
      <path fill-rule="evenodd" clip-rule="evenodd" d="M6.33653 2.26097C7.37669 1.57618 8.69729 1.97035 9.29392 2.96474L11.9187 7.33933C12.5196 8.34087 12.2277 9.63783 11.2556 10.2854L9.42659 11.5037C9.27926 11.6019 9.25644 11.781 9.34054 11.9015C10.221 13.1628 11.74 15.2395 13.0323 16.5319C14.3249 17.8244 16.4018 19.3435 17.6631 20.2239C17.7836 20.308 17.9626 20.2852 18.0608 20.138L19.2802 18.3089C19.9279 17.3373 21.2245 17.0458 22.2257 17.6466L26.6004 20.2714C27.595 20.8681 27.9891 22.1891 27.3038 23.2293C26.8422 23.93 26.1501 24.8867 25.3113 25.7434C24.4888 26.5837 23.4386 27.4184 22.2489 27.7372C20.574 28.186 18.5926 27.6151 17.1679 27.0479C15.6887 26.4591 14.5493 25.765 14.4526 25.7056L14.4469 25.7021L14.4331 25.6933L14.4213 25.6856L14.4191 25.6843C14.2863 25.5966 10.5545 23.1302 8.49409 21.0698C6.43376 19.0095 3.96814 15.2787 3.88062 15.1461L3.87856 15.143L3.87088 15.1311L3.86216 15.1173L3.85866 15.1116C3.79932 15.0151 3.10515 13.8757 2.51621 12.3964C1.94896 10.9717 1.37798 8.99017 1.82707 7.31515C2.14606 6.12535 2.98114 5.07524 3.82164 4.25288C4.67871 3.41431 5.63567 2.72237 6.33653 2.26097ZM7.52165 3.80089C7.46795 3.7873 7.41706 3.79446 7.36756 3.82705C6.72009 4.2533 5.87144 4.87052 5.13292 5.5931C4.37783 6.33188 3.82734 7.0949 3.63811 7.8007C3.35988 8.83846 3.7046 10.3124 4.25822 11.7029C4.77296 12.9957 5.38131 14.0072 5.45088 14.1214C5.6158 14.3706 7.94254 17.8666 9.81992 19.744C11.6974 21.6215 15.1934 23.9483 15.4428 24.1133C15.5571 24.183 16.5686 24.7912 17.8614 25.3059C19.2519 25.8594 20.7258 26.2042 21.7636 25.9261C22.4694 25.7369 23.2325 25.1866 23.9715 24.4318C24.6942 23.6935 25.3116 22.8451 25.7381 22.1978C25.7707 22.1483 25.7779 22.0974 25.7643 22.0437C25.7498 21.9863 25.7096 21.9235 25.6357 21.8792L21.2611 19.2544C21.118 19.1685 20.9328 19.2102 20.8403 19.349L19.6209 21.178C18.9564 22.1748 17.5969 22.4643 16.5899 21.7614C15.3299 20.8819 13.1286 19.2797 11.7065 17.8577C10.2846 16.4358 8.68263 14.2347 7.80307 12.9747C7.09993 11.9674 7.3898 10.6076 8.38711 9.94324L10.2162 8.72487C10.355 8.63237 10.3967 8.44709 10.3109 8.30401L7.68612 3.92942C7.6418 3.85554 7.57899 3.81539 7.52165 3.80089Z"/>
      <path fill-rule="evenodd" clip-rule="evenodd" d="M15.3197 7.38458C15.3835 6.87076 15.8518 6.50594 16.3656 6.56974L16.2501 7.5001C16.3656 6.56974 16.366 6.56979 16.3664 6.56983L16.3671 6.56993L16.3689 6.57015L16.373 6.57068L16.3836 6.5721L16.4144 6.57653C16.4391 6.58023 16.4722 6.58551 16.513 6.59275C16.5948 6.60722 16.708 6.62955 16.8488 6.66282C17.1303 6.72936 17.5228 6.83984 17.9951 7.01924C18.9403 7.37822 20.2055 8.01345 21.5378 9.12364C22.8714 10.235 23.6496 11.3036 24.0979 12.1234C24.3215 12.5322 24.4615 12.8761 24.5475 13.1288C24.5905 13.2551 24.6199 13.3584 24.6396 13.4356C24.6494 13.4742 24.6568 13.5062 24.6622 13.5312L24.6689 13.5635L24.6712 13.5757L24.6722 13.5807L24.6726 13.583L24.6728 13.5841C24.6729 13.5846 24.673 13.5851 23.7501 13.7501L24.673 13.5851C24.7641 14.0948 24.4248 14.5818 23.9151 14.673C23.4091 14.7634 22.9254 14.4297 22.8293 13.9262C22.8285 13.9228 22.8265 13.9136 22.8227 13.8987C22.8147 13.8674 22.7991 13.8111 22.7725 13.7329C22.7193 13.5767 22.6219 13.3322 22.4529 13.0232C22.1161 12.4074 21.488 11.5229 20.3374 10.5641C19.1854 9.60406 18.107 9.06741 17.3294 8.77206C16.9404 8.6243 16.6268 8.53701 16.4175 8.48755C16.313 8.46284 16.2346 8.44762 16.1862 8.43904C16.162 8.43476 16.1453 8.43214 16.1365 8.43082L16.1297 8.42984C15.6185 8.3637 15.2561 7.89678 15.3197 7.38458Z"/>
      <path fill-rule="evenodd" clip-rule="evenodd" d="M15.3229 2.36197C15.3992 1.84985 15.8762 1.49656 16.3883 1.57286L16.2501 2.50013C16.3883 1.57286 16.3887 1.57293 16.3892 1.573L16.3901 1.57314L16.3923 1.57347L16.3975 1.57428L16.4116 1.57654L16.4541 1.58387C16.4886 1.59008 16.5356 1.59907 16.5942 1.61152C16.7115 1.63643 16.8755 1.67521 17.0805 1.73336C17.4906 1.84967 18.065 2.04355 18.7572 2.35906C20.1432 2.99081 21.9959 4.10757 23.9443 6.05596C25.8927 8.00435 27.0094 9.857 27.6412 11.2431C27.9567 11.9353 28.1506 12.5096 28.2669 12.9197C28.325 13.1248 28.3638 13.2888 28.3887 13.406C28.4012 13.4647 28.4102 13.5116 28.4164 13.5462L28.4237 13.5886L28.426 13.6027L28.4268 13.608L28.4271 13.6101L28.4273 13.6111C28.4273 13.6115 28.4274 13.612 27.5001 13.7501L28.4274 13.612C28.5037 14.1241 28.1504 14.6011 27.6383 14.6774C27.1276 14.7535 26.6519 14.4024 26.5735 13.8927C26.5735 13.8927 26.5735 13.8927 26.5735 13.8926C26.5735 13.8926 26.5735 13.8925 26.5735 13.8924L26.571 13.878C26.5682 13.8623 26.5629 13.8347 26.5547 13.7956C26.5381 13.7176 26.5093 13.5943 26.463 13.4313C26.3706 13.1053 26.2084 12.6205 25.9351 12.0207C25.389 10.8227 24.3964 9.15973 22.6185 7.38179C20.8405 5.60385 19.1775 4.61123 17.9796 4.06519C17.3798 3.79181 16.895 3.62969 16.5689 3.53722C16.4059 3.49098 16.2826 3.46218 16.2046 3.4456C16.1656 3.43731 16.1379 3.43209 16.1222 3.42927M15.3229 2.36197C15.2468 2.87264 15.5979 3.34839 16.1076 3.42673L15.3229 2.36197ZM26.5733 13.8912C26.5733 13.8911 26.5733 13.891 26.5732 13.8909L26.5733 13.8911L26.5733 13.8912ZM26.5731 13.8898C26.573 13.8895 26.573 13.8893 26.573 13.8891C26.573 13.8891 26.573 13.8891 26.573 13.8891L26.5731 13.8898Z"/>
    </g>
    <defs>
      <clipPath id="clip0_214_440">
      <rect width="30" height="30" fill="white"/>
      </clipPath>
    </defs>
  </symbol>
  <symbol id="application" viewBox="0 0 31 30">
     <path fill-rule="evenodd" clip-rule="evenodd" d="M6.89551 6.25C6.89551 3.66117 8.99417 1.5625 11.583 1.5625H24.083C26.6718 1.5625 28.7705 3.66117 28.7705 6.25V12.5C28.7705 15.0888 26.6718 17.1875 24.083 17.1875H23.458C22.5951 17.1875 21.8955 16.4879 21.8955 15.625V10.625C21.8955 9.41688 20.9161 8.4375 19.708 8.4375H9.08301C7.87489 8.4375 6.89551 7.45812 6.89551 6.25ZM11.583 3.4375C10.0297 3.4375 8.77051 4.6967 8.77051 6.25C8.77051 6.42259 8.91042 6.5625 9.08301 6.5625H19.708C21.9517 6.5625 23.7705 8.38134 23.7705 10.625V15.3125H24.083C25.6363 15.3125 26.8955 14.0533 26.8955 12.5V6.25C26.8955 4.6967 25.6363 3.4375 24.083 3.4375H11.583Z"/>
     <path fill-rule="evenodd" clip-rule="evenodd" d="M1.89551 11.25C1.89551 8.66116 3.99417 6.5625 6.58301 6.5625H19.083C21.6718 6.5625 23.7705 8.66116 23.7705 11.25V17.9167C23.7705 20.5055 21.6718 22.6042 19.083 22.6042H14.6768L9.80224 27.9752C8.78936 29.0912 6.93937 28.2679 7.09059 26.7683L7.5105 22.6042H6.58301C3.99418 22.6042 1.89551 20.5055 1.89551 17.9167V11.25ZM6.58301 8.4375C5.02971 8.4375 3.77051 9.6967 3.77051 11.25V17.9167C3.77051 19.47 5.02971 20.7292 6.58301 20.7292H7.8561C8.78103 20.7292 9.50351 21.5282 9.41071 22.4484L9.0513 26.0126L13.3813 21.2416C13.6775 20.9153 14.0977 20.7292 14.5384 20.7292H19.083C20.6363 20.7292 21.8955 19.47 21.8955 17.9167V11.25C21.8955 9.6967 20.6363 8.4375 19.083 8.4375H6.58301Z"/>
  </symbol>
  <symbol id="download" viewBox="0 0 15 15" >
    <path fill-rule="evenodd" clip-rule="evenodd" d="M7.1998 8.36351L5.118 6.2817C4.94227 6.10597 4.65734 6.10597 4.48161 6.2817C4.30587 6.45744 4.30587 6.74236 4.48161 6.9181L6.83918 9.27567C7.03835 9.47484 7.36126 9.47484 7.56043 9.27567L9.918 6.9181C10.0937 6.74236 10.0937 6.45744 9.918 6.2817C9.74227 6.10597 9.45734 6.10597 9.28161 6.2817L7.1998 8.36351Z"/>
    <path fill-rule="evenodd" clip-rule="evenodd" d="M7.1999 8.8501C6.95137 8.8501 6.7499 8.64863 6.7499 8.4001L6.7499 1.2001C6.7499 0.951569 6.95137 0.750098 7.1999 0.750098C7.44843 0.750098 7.6499 0.95157 7.6499 1.2001L7.6499 8.4001C7.6499 8.64863 7.44843 8.8501 7.1999 8.8501Z"/>
    <path fill-rule="evenodd" clip-rule="evenodd" d="M1.4998 8.55005C1.74833 8.55005 1.9498 8.75152 1.9498 9.00005V11.55H12.4498V9.30005C12.4498 9.05152 12.6513 8.85005 12.8998 8.85005C13.1483 8.85005 13.3498 9.05152 13.3498 9.30005V11.94C13.3498 12.2217 13.1215 12.45 12.8398 12.45H1.5598C1.27814 12.45 1.0498 12.2217 1.0498 11.94V9.00005C1.0498 8.75152 1.25128 8.55005 1.4998 8.55005Z"/>
  </symbol>
  <symbol id="messenger" viewBox="0 0 40 36">
     <g filter="url(#filter0_i_1_14)">
     <path fill-rule="evenodd" clip-rule="evenodd" d="M17.7218 0C27.0391 0 34.5981 6.65386 34.6622 14.8845C32.5517 13.7325 30.1254 13.121 27.6873 13.121C22.5082 13.121 17.3775 15.8784 15.2285 20.7292C14.6 22.1489 14.2734 23.6733 14.2734 25.2274C14.2734 26.7814 14.6 28.3058 15.2295 29.7255C15.2443 29.7601 15.26 29.7927 15.2748 29.8263C13.5718 29.6079 11.9507 29.1653 10.45 28.534C7.58858 30.1088 3.99706 30.8725 0 31.0316C1.83523 28.5558 2.9344 25.911 3.50273 23.1428C1.78096 20.7964 0.780467 17.9975 0.780467 14.9902C0.780467 6.71116 8.3651 0 17.7218 0Z" fill="url(#paint0_linear_1_14)"/>
     </g>
     <g filter="url(#filter1_i_1_14)">
     <path fill-rule="evenodd" clip-rule="evenodd" d="M27.6883 15.1591C21.4041 15.1591 16.3109 19.6672 16.3109 25.2274C16.3109 30.7876 21.4041 35.2946 27.6883 35.2946C29.4367 35.2946 31.0924 34.9459 32.5714 34.3225C34.4945 35.3805 36.9059 35.8933 39.5897 36C38.3573 34.3373 37.6193 32.5609 37.2374 30.7026C38.3938 29.1258 39.0668 27.2467 39.0668 25.2274C39.0668 19.6672 33.9725 15.1591 27.6883 15.1591ZM22.9808 23.9233C23.8945 23.9233 24.6345 24.6652 24.6345 25.5801C24.6345 26.4939 23.8945 27.2359 22.9808 27.2359C22.0672 27.2359 21.3272 26.4939 21.3272 25.5801C21.3272 24.6652 22.0672 23.9233 22.9808 23.9233ZM27.6883 23.9233C28.602 23.9233 29.342 24.6652 29.342 25.5801C29.342 26.4939 28.602 27.2359 27.6883 27.2359C26.7746 27.2359 26.0346 26.4939 26.0346 25.5801C26.0346 24.6652 26.7746 23.9233 27.6883 23.9233ZM32.3958 23.9233C33.3095 23.9233 34.0505 24.6652 34.0505 25.5801C34.0505 26.4939 33.3095 27.2359 32.3958 27.2359C31.4821 27.2359 30.7421 26.4939 30.7421 25.5801C30.7421 24.6652 31.4821 23.9233 32.3958 23.9233Z" fill="url(#paint1_linear_1_14)" fill-opacity="0.2"/>
     </g>
     <defs>
     <filter id="filter0_i_1_14" x="0" y="0" width="34.6622" height="32.0316" filterUnits="userSpaceOnUse" color-interpolation-filters="sRGB">
     <feFlood flood-opacity="0" result="BackgroundImageFix"/>
     <feBlend mode="normal" in="SourceGraphic" in2="BackgroundImageFix" result="shape"/>
     <feColorMatrix in="SourceAlpha" type="matrix" values="0 0 0 0 0 0 0 0 0 0 0 0 0 0 0 0 0 0 127 0" result="hardAlpha"/>
     <feOffset dy="1"/>
     <feGaussianBlur stdDeviation="0.5"/>
     <feComposite in2="hardAlpha" operator="arithmetic" k2="-1" k3="1"/>
     <feColorMatrix type="matrix" values="0 0 0 0 0 0 0 0 0 0 0 0 0 0 0 0 0 0 0.1 0"/>
     <feBlend mode="normal" in2="shape" result="effect1_innerShadow_1_14"/>
     </filter>
     <filter id="filter1_i_1_14" x="16.3109" y="15.1591" width="23.2788" height="21.8409" filterUnits="userSpaceOnUse" color-interpolation-filters="sRGB">
     <feFlood flood-opacity="0" result="BackgroundImageFix"/>
     <feBlend mode="normal" in="SourceGraphic" in2="BackgroundImageFix" result="shape"/>
     <feColorMatrix in="SourceAlpha" type="matrix" values="0 0 0 0 0 0 0 0 0 0 0 0 0 0 0 0 0 0 127 0" result="hardAlpha"/>
     <feOffset dy="1"/>
     <feGaussianBlur stdDeviation="0.5"/>
     <feComposite in2="hardAlpha" operator="arithmetic" k2="-1" k3="1"/>
     <feColorMatrix type="matrix" values="0 0 0 0 0 0 0 0 0 0 0 0 0 0 0 0 0 0 0.1 0"/>
     <feBlend mode="normal" in2="shape" result="effect1_innerShadow_1_14"/>
     </filter>
     <linearGradient id="paint0_linear_1_14" x1="17.3739" y1="7.9749" x2="17.3311" y2="31.0316" gradientUnits="userSpaceOnUse">
     <stop stop-color="#2AABEE" stop-opacity="0.7"/>
     <stop offset="1" stop-color="#229ED9"/>
     </linearGradient>
     <linearGradient id="paint1_linear_1_14" x1="39.0201" y1="35.0326" x2="21.575" y2="16.4482" gradientUnits="userSpaceOnUse">
     <stop stop-color="#229ED9"/>
     <stop offset="0.612147" stop-color="#27A6E6"/>
     <stop offset="1" stop-color="#2AABEE"/>
     </linearGradient>
     </defs>
  </symbol>
</svg>