<svg width="296" height="143" viewBox="0 0 296 143" fill="none" xmlns="http://www.w3.org/2000/svg">
<g clip-path="url(#clip0_223_792)">
<path d="M151.351 116.651C153.753 117.72 155.776 118.726 157.42 120.299C158.115 120.927 159.506 121.619 158.874 122.625C158.431 123.317 157.23 122.311 156.472 121.996C153.437 120.802 150.402 119.544 147.621 117.783C147.305 117.595 146.925 117.406 146.546 117.469C144.143 117.783 141.804 118.098 139.402 118.475C142.816 119.544 146.04 120.927 149.201 122.562C149.644 122.814 150.466 122.814 150.276 123.506C150.086 124.135 149.328 124.072 148.759 124.072C147.305 124.072 145.977 123.569 144.712 123.065C141.615 121.934 138.58 120.739 135.609 119.418C134.281 118.852 133.017 118.601 131.563 118.726C129.982 118.852 128.338 118.726 126.442 118.726C127.39 119.355 128.275 119.23 129.034 119.292C132.701 119.607 136.178 120.299 139.212 122.5C139.844 123.003 141.046 123.569 140.666 124.323C140.161 125.329 139.149 124.323 138.454 124.072C133.586 122.374 128.654 121.305 123.597 120.299C122.648 120.11 121.827 119.921 121.447 118.915C121.258 118.475 120.878 118.223 120.436 118.349C119.993 118.538 120.12 118.978 120.12 119.292C120.12 121.242 119.993 123.128 119.234 124.952C117.907 128.033 115.757 129.102 112.47 128.222C111.711 128.033 111.395 128.033 110.953 128.851C108.803 132.75 102.924 132.75 100.648 128.851C100.015 127.782 99.5728 127.467 98.3084 127.782C96.4118 128.285 94.3887 128.285 92.4288 127.53C90.0897 126.65 88.8885 124.763 88.3195 122.562C88.0034 121.242 89.2046 120.236 90.1529 119.104C88.3195 118.726 86.5493 118.601 85.032 117.783C84.7159 117.595 84.3998 117.909 84.1469 118.035C81.9342 118.978 79.9111 118.601 78.1409 117.154C77.4455 116.588 76.9397 116.588 76.1179 116.84C73.0833 117.783 69.6061 116.525 69.1636 112.752C68.9739 110.929 68.4049 109.168 70.0487 107.596C68.9739 106.778 67.9624 106.715 66.7612 107.219C63.2208 108.602 59.554 109.671 55.824 110.489C54.6228 110.74 53.3584 111.18 51.8411 110.3C56.0136 108.728 59.6172 106.59 63.9162 106.338C59.8701 105.458 55.9504 105.898 52.0939 107.344C50.5134 107.973 48.8065 108.35 47.1627 108.854C46.2144 109.105 45.3293 108.979 44.4442 108.602C47.6053 107.344 50.956 106.653 54.3699 105.898C53.9273 105.332 53.4216 105.584 52.979 105.521C52.4733 105.458 52.0307 105.584 51.525 105.521C46.4673 104.955 41.5993 105.646 36.9842 108.036C35.1508 108.979 33.0645 109.168 31.0414 109.357C30.6621 109.419 30.0931 109.734 29.9666 109.105C29.8402 108.602 30.346 108.35 30.7253 108.162C32.8116 107.156 34.9611 106.338 37.3003 105.584C36.6681 105.206 36.1623 105.332 35.6565 105.332C30.915 105.269 26.1734 105.332 21.4318 105.018C19.0294 104.892 16.627 105.332 14.1614 105.332C7.52325 105.269 3.16101 102.314 0.948278 96.2766C-0.885127 91.3087 1.07472 84.8315 5.5634 81.2471C9.73598 77.8513 14.7936 76.2792 19.9778 75.7133C32.4955 74.3927 45.0132 74.7071 57.4677 76.4679C58.8586 76.6565 60.1862 77.1596 61.4506 77.7256C62.5886 78.2915 63.6634 78.7946 64.8013 79.2977C67.9624 80.5554 67.8992 80.4925 70.1751 78.04C72.6407 75.3359 75.4224 73.0092 79.0892 71.9402C82.2503 70.9969 82.5032 70.4938 82.1871 67.2238C81.4916 60.2436 82.5032 53.3263 83.4515 46.4718C84.0837 42.0699 85.0952 37.7308 86.0435 33.3918C86.5493 31.0651 87.5608 29.1785 88.5091 27.1662C89.8368 24.3364 90.7851 21.255 92.9346 18.8654C93.1243 18.6139 93.3772 18.2994 93.3772 18.0479C93.3772 14.6521 95.6531 12.514 97.7394 10.2502C101.153 6.53999 105.136 3.39575 109.246 0.440161C110.32 -0.314457 111.522 -0.125802 112.596 0.377276C114.366 1.25766 115.694 2.70401 116.895 4.21325C118.349 5.97402 119.677 7.7348 121.131 9.49557C122.079 10.6904 123.154 10.879 124.608 9.99865C129.792 6.85441 134.913 3.52152 140.54 1.25766C145.977 -0.88042 148.19 -0.188687 151.224 4.8421C154.954 11.0048 156.851 17.7964 158.874 24.5879C159.38 26.4116 160.202 28.1724 160.265 29.996C160.328 31.8197 161.466 32.8887 162.225 34.2093C163.679 36.5989 164.501 39.303 165.006 42.007C165.196 43.0132 165.386 43.9564 165.575 45.1512C167.535 43.8936 169.369 42.6987 171.265 41.5039C177.714 37.5422 184.605 34.7753 192.318 34.4608C192.76 34.4608 193.266 34.4608 193.456 34.0206C194.025 32.5114 195.226 32.7629 196.427 32.7629C208.439 32.7001 215.773 39.6174 219.123 50.748C220.325 54.7726 220.135 58.6086 217.922 62.3188C217.1 63.7023 216.152 64.2682 214.572 64.1425C212.043 63.8909 209.767 63.0734 207.87 61.3126C207.238 60.7467 206.922 60.7467 206.353 61.3755C204.14 63.9538 201.295 64.1425 198.261 63.4507C197.755 63.325 197.186 63.1992 196.68 63.1992C195.858 63.1992 195.352 62.9476 194.847 62.193C193.772 60.558 193.203 60.6209 191.496 61.6271C185.996 64.8342 180.306 67.6011 173.668 67.7269C172.593 67.7269 171.518 67.6011 170.443 67.4753C169.685 67.4125 169.242 67.5382 169.621 68.4186C169.685 68.5444 169.685 68.6073 169.748 68.733C170.19 69.865 169.938 71.6257 170.949 72.0659C171.834 72.5061 173.352 71.9402 174.553 71.7515C176.829 71.3742 178.852 71.6886 180.748 73.2607C182.835 75.0215 185.174 76.4679 186.944 78.606C189.41 81.5615 189.283 85.0202 189.094 88.416C188.714 94.0127 186.691 98.9806 183.088 103.383C182.898 103.634 182.708 103.886 182.455 104.137C181.381 105.206 180.369 105.898 182.266 107.533C184.794 109.797 183.973 114.702 181.254 116.714C179.926 117.72 178.599 118.726 176.765 118.412C176.196 118.286 175.754 118.726 175.311 119.041C174.047 119.984 172.53 120.361 171.202 119.858C169.748 119.292 168.357 119.418 166.903 119.481C163.679 119.544 160.834 118.475 158.684 116.022C157.673 114.89 156.788 114.702 155.46 115.331C154.196 115.897 152.931 116.148 151.351 116.651ZM84.5262 69.3619C85.1584 69.5505 85.601 67.6011 86.1068 69.4877C88.9517 80.9956 92.6817 92.3148 95.4634 103.886C96.475 108.225 97.613 112.501 97.8658 116.966C97.9291 118.349 97.5497 119.104 95.9692 118.915C94.5783 118.726 93.3139 118.978 92.1127 119.795C90.7219 120.802 90.1529 122.122 90.6587 123.317C91.4805 125.329 92.4921 125.958 94.4519 125.581C95.6531 125.392 96.8543 125.078 98.1187 124.952C99.2567 124.826 99.9521 124.386 100.584 123.443C101.469 122.059 102.671 120.99 104.378 120.676C104.757 120.613 105.136 120.55 105.389 120.927C105.642 121.368 105.326 121.619 105.01 121.871C104.188 122.562 103.366 123.254 102.607 124.009C101.28 125.392 101.28 126.524 102.671 127.908C104.63 129.983 108.677 129.731 110.131 127.467C110.32 127.153 110.194 126.964 110.004 126.776C108.993 125.581 109.246 124.135 109.182 122.751C109.182 121.745 109.751 121.179 110.636 121.242C111.901 121.305 111.142 122.311 111.079 122.814C110.826 124.826 111.395 125.958 113.039 126.273C115.378 126.776 117.275 125.455 117.528 123.065C117.654 122.059 117.717 121.053 117.717 120.047C117.528 111.558 116.453 103.068 115.504 94.6416C115.441 93.7612 115.315 92.9437 115.568 92.0633C115.694 91.6231 115.947 91.0571 116.516 91.12C116.959 91.1829 116.895 91.686 116.959 92.0633C118.16 99.9868 119.803 107.847 119.93 115.96C119.93 116.966 120.183 117.343 121.321 117.217C128.401 116.463 135.482 115.96 142.5 114.765C148.822 113.633 155.334 112.878 160.581 108.602C161.213 108.099 161.719 107.659 161.909 106.778C162.794 103.445 164.058 100.301 166.081 97.4085C166.334 97.0312 166.587 96.3395 167.282 96.591C167.851 96.8425 168.104 97.4714 168.041 98.0373C167.978 98.5404 167.851 99.1064 167.662 99.5466C166.713 101.685 165.639 103.823 164.69 105.961C164.501 106.401 163.932 107.03 164.311 107.407C165.386 108.413 164.437 108.916 163.995 109.482C163.047 110.677 162.035 111.746 160.771 112.627C160.012 113.13 160.138 113.507 160.581 114.199C162.351 116.84 164.88 117.406 167.788 117.091C169.179 116.903 169.811 115.96 169.811 114.639C169.811 113.821 169.685 113.067 169.621 112.249C169.621 111.809 169.305 111.18 169.938 111.055C170.696 110.929 170.696 111.683 170.823 112.124C171.202 113.633 171.455 115.205 171.139 116.714C171.076 117.154 170.886 117.595 171.518 117.657C172.593 117.783 173.731 117.846 174.616 117.029C175.438 116.274 175.185 115.205 174.932 114.325C174.742 113.696 174.426 113.13 174.11 112.564C173.857 111.998 173.541 111.432 173.352 110.803C173.225 110.426 173.352 110.048 173.731 109.86C174.047 109.671 174.363 109.734 174.553 110.111C175.375 111.746 176.892 113.004 177.018 114.953C177.145 116.337 177.714 116.4 178.789 116.085C179.61 115.834 180.243 115.394 180.812 114.765C181.823 113.633 181.76 112.124 180.748 110.992C179.231 109.231 178.03 108.854 176.639 109.671C176.196 109.923 175.754 110.174 175.311 109.734C174.806 109.231 175.185 108.728 175.501 108.35C176.955 106.527 178.283 104.64 179.863 103.005C183.214 99.4837 185.996 95.7106 186.312 90.617C186.312 90.4912 186.375 90.4283 186.375 90.3025C186.818 86.781 186.818 83.3223 184.858 80.1781C183.34 77.7885 180.875 76.5308 178.283 75.5246C177.271 75.1473 176.323 74.3927 175.248 74.6442C174.3 74.8958 173.857 74.4556 173.225 74.0783C172.783 73.7638 172.593 72.8206 171.708 73.2607C170.823 73.7009 170.696 74.3927 170.823 75.2731C171.012 77.2225 171.202 79.2348 170.759 81.1842C170.633 81.8131 170.254 82.2533 169.495 82.1275C168.673 82.0017 168.8 81.31 168.926 80.8698C169.369 79.3606 168.926 77.9142 168.547 76.4679C167.788 73.5752 166.84 70.6825 166.65 67.664C166.524 65.8403 166.84 65.463 168.547 65.6517C176.955 66.4063 184.225 63.1992 191.433 59.489C191.875 59.2374 192.128 59.0488 191.749 58.4828C189.915 55.7159 190.611 52.8232 191.496 49.9934C192.128 48.1068 193.582 47.3522 195.352 47.6666C196.49 47.9182 196.743 48.3584 195.985 49.3016C195.163 50.4336 194.278 51.5026 193.519 52.6974C191.938 55.087 192.95 57.4767 195.732 58.0426C196.806 58.2313 197.881 58.2313 198.956 57.9797C201.358 57.4138 202.307 56.1561 202.117 53.7036C202.054 52.6974 201.927 51.6913 201.801 50.6851C201.674 49.7418 201.991 48.9872 202.56 48.2955C202.812 48.0439 203.129 47.6666 203.508 47.7295C203.95 47.7924 203.887 48.2955 204.014 48.6728C204.33 49.6161 203.95 50.9366 204.709 51.5655C205.657 52.383 206.037 53.452 206.606 54.4582C207.68 56.4076 208.439 58.6086 209.893 60.3065C211.916 62.5703 215.33 62.0673 216.405 59.3003C216.847 58.1684 217.1 56.9736 217.1 55.7159C217.037 40.1205 199.272 32.3856 189.22 37.3535C181.317 41.2524 173.099 44.4595 165.006 47.9811C164.184 48.3584 163.236 48.547 161.972 47.7924C164.501 47.1636 163.742 45.7172 163.236 44.3966C161.972 40.8751 160.644 37.3535 159.569 33.7691C159.253 32.8258 158.242 32.8258 158.052 31.8826C156.788 26.2858 154.765 20.9406 152.742 15.5325C151.414 12.011 150.086 8.48941 148 5.34517C146.04 2.38959 145.345 2.26382 142.12 3.64729C136.051 6.28845 130.298 9.62134 124.545 12.8913C122.901 13.8346 121.827 13.5831 120.562 12.4512C118.097 10.2502 116.073 7.67191 113.861 5.28229C111.142 2.3267 110.257 2.20094 106.78 4.27613C105.958 4.77921 105.199 5.34517 104.441 5.97402C101.659 8.30076 99.5096 11.1935 97.5497 14.2119C97.044 15.0294 96.475 15.8469 95.9692 16.6644C99.2567 15.5325 102.481 15.0923 105.768 15.281C110.826 15.5325 115.378 17.1675 118.223 21.5695C121.574 26.8518 119.74 34.5237 114.177 38.171C108.803 41.6926 102.923 41.7555 96.9807 39.7432C94.0094 38.737 91.7966 36.6618 90.3425 33.9578C89.7736 32.8887 89.3942 31.7568 88.9517 30.6877C88.6988 30.6877 88.5091 30.6877 88.2563 30.6877C85.7907 43.3276 84.7791 56.3447 84.5262 69.3619ZM73.3994 104.766C72.5143 103.634 71.8821 102.817 71.2499 101.936C68.2153 97.2827 65.6232 92.4406 66.1922 86.5294C66.3186 85.4604 67.2037 84.1398 66.4451 83.3852C65.7496 82.6935 64.3588 82.7563 63.3473 82.3161C58.5425 80.0523 53.4848 78.606 48.1742 78.1658C39.0072 77.3483 29.9034 77.474 20.7996 78.9204C16.0581 79.675 11.4429 80.8698 7.33358 83.5738C2.40236 86.781 0.885057 93.0066 4.29898 97.4714C7.77613 101.936 12.5809 103.76 18.1443 103.823C18.6501 103.823 19.2191 103.697 19.3455 103.194C19.7249 101.559 20.9893 101.748 22.1273 101.81C29.1448 102.062 36.0991 101.936 43.1166 101.999C50.8927 102.062 58.7321 101.873 66.4451 103.32C68.6578 103.697 70.8073 104.2 73.3994 104.766ZM84.3998 71.6886C83.6411 72.8834 82.4399 73.5752 81.1123 74.0783C79.026 74.8329 77.1294 75.9648 75.2328 77.0967C68.2153 81.2471 66.3186 89.2335 70.6809 96.1508C73.0833 99.9868 76.6236 102.754 80.2272 105.395C80.8594 105.898 82.0606 106.275 81.871 107.156C81.6181 108.099 80.3537 108.036 79.5318 108.225C77.4455 108.728 75.2328 108.728 73.2097 109.545C71.3763 110.237 70.8073 111.746 71.8188 113.381C72.5775 114.639 73.8419 114.639 75.1063 114.513C76.434 114.387 75.9282 113.255 75.9282 112.627C75.9282 111.558 76.434 110.866 77.1926 110.363C77.9513 109.86 78.6467 108.288 79.595 109.168C80.6698 110.111 79.5318 111.18 78.8364 112.061C78.3938 112.627 78.0145 113.004 78.3938 113.947C79.0892 115.897 80.4801 115.96 82.0606 116.085C82.8193 116.148 83.1354 115.897 83.0089 115.079C82.8193 113.255 84.1469 112.061 85.0952 110.74C85.4113 110.3 85.8539 110.426 86.2332 110.74C86.6125 111.055 86.8654 111.306 86.6125 111.809C86.3596 112.249 86.0435 112.689 85.7274 113.13C84.463 114.953 84.9688 116.022 87.1815 116.274C89.0781 116.525 90.9115 116.588 92.8082 116.777C93.2507 116.84 93.6933 116.903 94.0726 116.777C95.5267 116.4 95.9692 115.582 95.5899 113.821C93.63 105.206 91.038 96.7797 88.6356 88.2273C87.1815 82.7563 85.4113 77.3483 84.3998 71.6886ZM104.314 38.0453C105.073 38.0453 105.832 38.1082 106.59 38.0453C110.32 37.7308 113.545 36.3474 115.821 33.1403C118.855 28.927 118.16 23.6446 114.114 20.4375C110.826 17.8592 106.906 17.4191 102.924 17.7335C99.4464 17.985 96.3485 19.2427 93.8197 21.6952C90.2161 25.2168 90.0897 30.562 93.5036 34.2093C96.4118 37.4164 100.205 38.171 104.314 38.0453ZM195.479 60.4323C195.795 61.2498 196.237 61.5013 196.806 61.5013C198.134 61.5642 199.462 61.6899 200.853 61.8157C202.812 62.0044 204.33 61.3126 205.215 59.489C205.91 58.0426 204.646 57.1622 204.267 55.5272C202.496 59.6776 199.399 60.6838 195.479 60.4323Z" fill="#27187E"/>
<path d="M269.131 133.567C274.442 134.448 278.614 137.089 282.913 139.29C282.724 139.919 282.408 139.793 282.092 139.667C278.804 138.535 275.39 137.592 272.229 136.146C270.649 135.391 269.131 134.133 267.488 133.945C265.844 133.693 264.01 134.511 262.24 134.825C250.165 136.9 237.963 137.277 225.699 137.089C217.29 136.963 208.882 136.523 200.663 134.762C196.238 133.819 191.939 132.498 188.019 130.109C185.174 128.411 184.731 127.027 185.806 123.946C188.019 117.532 191.243 111.62 194.278 105.646C195.985 102.314 198.64 101.182 201.738 100.616C204.773 100.05 207.554 98.7291 210.526 98.0373C218.934 96.0879 227.532 96.2766 236.067 96.4652C241.504 96.591 246.941 96.8425 252.378 97.2199C258.068 97.5972 263.758 97.9745 269.131 100.238C269.574 100.427 269.953 100.301 270.396 100.238C271.407 100.175 272.419 100.05 273.43 100.113C274.758 100.238 275.77 100.804 276.402 102.125C279.816 109.482 283.103 116.966 285.948 124.575C286.643 126.398 286.517 127.216 284.62 128.033C281.586 129.354 278.488 130.486 275.39 131.618C273.494 132.31 271.534 132.813 269.131 133.567ZM196.301 126.273C193.582 126.587 192.634 126.21 189.979 124.135C189.663 123.883 189.473 123.38 188.904 123.694C187.829 124.26 187.703 126.713 188.651 127.467C193.14 130.737 198.387 131.932 203.698 132.813C210.146 133.882 216.658 134.259 223.17 134.385C239.038 134.699 254.843 134.196 270.333 130.486C274.505 129.48 278.488 128.096 282.408 126.398C283.419 125.958 283.482 125.392 283.103 124.386C280.701 118.412 278.298 112.438 276.022 106.464C275.643 105.521 275.39 105.458 274.568 106.024C273.746 106.527 272.861 106.904 271.913 107.219C267.804 108.539 263.441 108.854 259.206 109.231C250.608 110.111 242.01 110.174 233.412 110.3C225.635 110.363 217.922 110.677 210.146 109.797C208.123 109.545 206.1 109.168 204.077 109.231C203.002 109.294 201.991 109.168 201.232 108.602C199.968 107.722 198.45 107.407 197.186 106.59C196.554 106.212 196.238 106.464 195.985 107.093C195.1 109.357 194.215 111.558 193.33 113.821C193.14 114.325 192.824 114.828 193.772 115.016C195.163 115.268 196.111 116.337 197.186 117.091C197.565 117.343 198.198 117.595 197.945 118.16C197.692 118.789 196.996 118.538 196.491 118.475C195.163 118.223 194.341 117.28 193.582 116.337C193.33 116.022 193.14 115.456 192.634 115.708C191.812 116.085 191.559 118.349 192.318 118.978C194.088 120.424 196.048 121.682 198.008 122.94C198.324 123.128 198.83 123.254 198.577 123.757C198.45 124.072 198.008 124.009 197.692 123.946C197.312 123.883 196.996 123.757 196.617 123.569C194.847 122.688 193.203 121.556 191.749 120.173C191.496 119.921 191.306 119.292 190.737 119.795C189.916 120.487 189.916 121.934 190.737 122.688C191.306 123.191 191.875 123.694 192.508 124.135C193.582 124.7 194.784 125.392 196.301 126.273ZM262.051 105.646C263.125 105.521 264.074 105.521 264.896 105.269C266.223 104.829 266.223 103.571 266.35 102.502C266.476 101.496 265.465 101.685 264.959 101.622C261.924 101.056 258.953 100.553 255.918 100.05C246.372 98.4775 236.762 98.3518 227.089 98.4775C221.842 98.5404 216.658 98.8548 211.537 99.9239C211.031 100.05 210.146 99.861 210.209 100.49C210.273 102.062 209.704 103.886 211.095 105.206C212.802 106.841 214.761 107.973 217.227 108.036C228.417 108.225 239.607 107.533 250.797 106.841C254.401 106.59 257.815 106.087 260.723 103.76C261.418 103.194 262.62 102.125 263.315 102.817C264.01 103.634 262.62 104.514 262.051 105.646ZM210.589 107.596C208.755 105.835 208.882 103.571 208.503 101.433C208.439 100.93 208.313 100.427 207.681 100.553C207.112 100.616 206.416 100.616 206.416 101.433C206.416 102.817 206.037 104.2 206.353 105.584C206.543 106.338 206.543 107.407 207.428 107.533C208.25 107.659 208.186 106.527 208.566 106.024C208.629 105.961 208.755 105.961 208.945 105.835C208.945 106.778 208.313 108.288 210.589 107.596ZM204.583 103.068C203.761 104.2 203.382 105.269 203.445 106.464C203.445 106.778 203.382 107.219 203.824 107.219C204.204 107.219 204.33 106.841 204.393 106.59C204.772 105.521 204.836 104.452 204.583 103.068ZM269.89 104.452C270.775 104.389 270.902 103.76 271.091 103.131C271.218 102.628 270.965 102.188 270.522 102.188C269.574 102.251 269.89 103.194 269.574 103.76C269.447 104.074 269.447 104.452 269.89 104.452ZM267.93 102.314C267.804 102.942 267.614 103.634 267.424 104.389C267.361 104.703 267.551 105.018 267.867 104.829C268.562 104.389 268.562 103.571 268.815 102.879C269.005 102.376 268.626 102.314 267.93 102.314ZM199.652 103.571C198.893 103.886 198.261 104.074 197.502 104.389C198.64 105.206 199.525 105.646 199.652 103.571Z" fill="#27187E"/>
<path d="M197.692 28.4238C192.697 27.6692 188.272 28.864 183.846 30.3733C183.53 30.499 183.151 30.8135 182.835 30.4361C182.519 29.996 182.582 29.4929 182.961 29.1156C183.214 28.864 183.467 28.5496 183.783 28.3609C187.45 26.6631 191.306 25.8456 195.352 26.8517C196.174 27.0404 196.996 27.3548 197.692 28.4238Z" fill="#27187E"/>
<path d="M179.484 138.787C181.633 136.523 185.3 136.02 187.45 137.592C188.524 138.409 189.093 139.416 188.841 140.799C188.524 142.12 187.45 142.748 186.249 142.937C184.162 143.189 182.202 142.686 180.369 141.617C179.99 141.365 179.484 141.051 179.674 140.485C179.737 140.233 179.99 139.982 180.179 139.919C180.685 139.73 180.938 140.233 181.191 140.547C182.266 141.742 185.616 142.308 187.007 141.428C188.082 140.736 187.639 139.856 187.07 139.101C185.996 137.781 182.835 137.34 181.064 138.221C180.622 138.409 180.306 138.912 179.484 138.787Z" fill="#27187E"/>
<path d="M203.065 142.182C203.002 142.182 202.749 142.182 202.496 142.12C201.295 142.057 199.778 142.057 199.588 140.673C199.462 139.478 200.916 139.038 201.927 138.598C202.876 138.158 203.887 138.158 204.962 138.409C206.163 138.661 206.732 139.415 206.606 140.61C206.543 141.868 205.657 142.182 204.583 142.245C204.14 142.182 203.698 142.182 203.065 142.182ZM201.042 140.044C202.37 140.61 203.508 140.359 204.772 140.422C203.634 139.227 202.939 139.164 201.042 140.044Z" fill="#27187E"/>
<path d="M258.447 136.02C263.125 135.831 267.361 137.403 271.344 139.793C267.045 138.661 262.683 137.529 258.384 136.397C258.384 136.334 258.447 136.145 258.447 136.02Z" fill="#27187E"/>
<path d="M296 135.202C295.937 135.705 295.558 135.831 295.241 135.642C293.598 134.636 291.638 134.511 289.804 134.259C288.54 134.07 289.109 133.379 289.172 132.75C289.172 131.869 289.678 131.869 290.373 132.058C292.08 132.561 293.724 133.253 295.178 134.259C295.494 134.511 295.874 134.762 296 135.202Z" fill="#27187E"/>
<path d="M192.128 20.9406C190.421 22.1354 188.524 22.7642 186.565 23.3931C185.996 23.5817 185.363 23.5817 185.111 23.0787C184.858 22.4498 185.553 22.1983 185.996 22.0096C187.892 21.0035 189.979 20.8148 192.128 20.9406Z" fill="#27187E"/>
<path d="M117.843 56.9107C117.907 54.1438 118.033 51.4397 118.855 48.7357C119.234 47.5409 119.867 46.4718 121.005 45.843C121.257 45.7172 121.447 45.5285 121.573 45.3399C123.028 43.3276 121.953 38.5483 119.74 37.3535C119.298 37.102 118.476 37.2277 118.602 36.4731C118.665 35.8443 119.171 35.2154 119.803 35.0268C121.194 34.6495 122.711 34.7124 124.102 34.9639C124.798 35.0897 124.987 35.9072 124.355 36.2845C123.344 36.8504 123.66 37.6051 123.786 38.3597C124.102 40.3091 124.861 42.1957 124.671 44.208C124.608 44.8368 125.24 44.8997 125.556 45.1512C126.884 46.2832 128.465 47.0378 128.338 49.4274C128.275 50.6222 129.666 51.8799 130.424 53.1376C132.005 55.653 133.585 58.1055 135.166 60.6209C136.051 62.0044 135.735 62.759 134.028 62.9476C133.965 62.9476 133.902 63.0105 133.838 62.9476C130.172 61.124 126.631 63.828 123.028 63.1992C122.459 63.0734 121.826 63.1363 121.257 63.0734C118.476 62.5703 117.654 61.5013 117.654 58.7344C117.843 58.0426 117.843 57.4767 117.843 56.9107ZM128.085 60.0549C126.125 57.3509 125.999 57.288 123.217 58.5457C122.522 58.8601 121.763 59.0488 121.131 59.3632C120.752 59.6147 119.867 59.4261 119.993 60.1807C120.119 60.9353 120.878 60.8724 121.447 60.8095C123.597 60.6838 125.809 60.558 128.085 60.0549Z" fill="#27187E"/>
<path d="M138.074 14.6521C140.224 14.5892 143.322 15.1552 145.977 17.1046C151.224 21.0035 151.92 27.4177 148.19 32.8887C143.132 40.1833 130.488 41.1895 124.039 32.7C123.787 32.3856 123.597 32.1341 123.344 31.8196C119.867 27.3548 120.246 23.1415 124.482 19.3056C128.022 16.0356 132.258 14.7779 138.074 14.6521ZM137.063 17.5448C133.017 17.5448 129.287 18.4252 125.999 20.8777C122.901 23.1415 122.269 26.16 124.482 29.2414C127.643 33.6433 131.626 36.3473 137.379 35.97C142.247 35.6556 146.356 32.8258 147.81 28.4239C148.822 25.2796 147.81 21.9467 145.282 19.8715C142.879 17.9221 140.034 17.4819 137.063 17.5448Z" fill="#27187E"/>
<path d="M106.78 22.8901C106.527 23.5818 106.401 24.7766 105.263 24.6508C104.63 24.5879 103.556 24.0849 103.745 23.0787C103.935 22.0097 104.883 21.5066 105.895 21.5066C106.717 21.5066 106.843 22.1354 106.78 22.8901Z" fill="#27187E"/>
<path d="M132.068 22.89C132.005 21.758 132.637 21.3807 133.775 21.3807C134.723 21.3807 134.787 21.9467 134.787 22.6384C134.723 23.5817 134.218 24.2734 133.206 24.3363C132.321 24.3992 131.942 23.8332 132.068 22.89Z" fill="#27187E"/>
</g>
<defs>
<clipPath id="clip0_223_792">
<rect width="296" height="143" fill="white"/>
</clipPath>
</defs>
</svg>
